#!OML:ASF F:\VICON\USERDATA\INSTALL\rory3\rory3.ASF
:FULLY-SPECIFIED
:DEGREES
256
root 3.42917 15.9356 -4.9508 22.39 18.0286 0.563133
lowerback -9.6019 0.787184 -0.629061
upperback -8.42966 1.23194 2.93229
thorax -3.49086 0.7768 3.48076
lowerneck -8.10702 -4.49451 -2.61335
upperneck 28.3509 -4.75417 -3.62934
head 10.3555 -2.80374 -1.35773
rclavicle 5.52746e-014 7.95139e-016
rhumerus 135.318 19.8818 -226.768
rradius 10.5659
rwrist 75.0239
rhand -16.1835 16.1379
rfingers 7.12502
rthumb 10.0232 -13.6034
lclavicle 5.52746e-014 7.95139e-016
lhumerus 39.3127 21.5441 75.6165
lradius 20.3437
lwrist -6.32847
lhand 13.4784 36.9415
lfingers 7.12502
lthumb 38.4175 62.6259
rfemur 145.497 -219.756 -200.178
rtibia 38.6819
rfoot -88.6537 25.6009
rtoes 61.3443
lfemur -49.0183 -2.19851 -32.4651
ltibia 51.6176
lfoot -28.9412 15.6042
ltoes -1.78493
257
root 3.41926 15.9293 -4.93729 22.9695 17.3087 0.372811
lowerback -9.74815 0.897216 -0.745898
upperback -8.63271 1.39233 2.98112
thorax -3.64357 0.869975 3.61014
lowerneck -8.76952 -4.40499 -2.48252
upperneck 28.622 -4.58261 -3.79013
head 10.579 -2.73499 -1.44504
rclavicle -8.41108e-015 -2.54444e-014
rhumerus 137.772 17.6692 -221.709
rradius 10.6648
rwrist 71.7234
rhand -16.3021 15.2679
rfingers 7.12502
rthumb 9.90868 -14.4789
lclavicle -8.41108e-015 -2.54444e-014
lhumerus 37.6017 21.3254 72.6507
lradius 19.982
lwrist -11.1085
lhand 13.603 35.8299
lfingers 7.12502
lthumb 38.5351 61.4815
rfemur 146.552 -218.369 -198.588
rtibia 38.5356
rfoot -86.6789 23.9073
rtoes 61.3575
lfemur -49.9854 -1.85666 -32.4
ltibia 51.9607
lfoot -28.9303 16.0789
ltoes -2.18091
258
root 3.42019 15.9172 -4.92573 23.6401 16.8254 0.10585
lowerback -10.0677 0.995757 -0.494679
upperback -8.85982 1.5122 2.98132
thorax -3.71257 0.922401 3.48207
lowerneck -9.01687 -4.37138 -2.36271
upperneck 28.5459 -4.52633 -3.8983
head 10.5926 -2.71164 -1.50279
rclavicle -6.31017e-014 -3.18055e-014
rhumerus 139.341 19.1197 -219.887
rradius 10.7071
rwrist 73.7194
rhand -16.2226 15.3955
rfingers 7.12502
rthumb 9.98538 -14.3476
lclavicle -6.31017e-014 -3.18055e-014
lhumerus 35.2283 19.756 68.5297
lradius 20.0384
lwrist -13.4616
lhand 12.6483 35.4471
lfingers 7.12502
lthumb 37.6336 61.345
rfemur 147.723 -216.469 -196.715
rtibia 38.387
rfoot -84.6256 22.0993
rtoes 61.3488
lfemur -50.9883 -1.64131 -32.2515
ltibia 52.3094
lfoot -29.2537 16.0228
ltoes -0.979115
259
root 3.41527 15.9108 -4.90687 24.2873 16.1615 0.0178615
lowerback -10.3548 1.0167 -0.586491
upperback -9.01393 1.54767 3.0038
thorax -3.72711 0.948232 3.56575
lowerneck -9.25332 -4.21393 -2.32566
upperneck 28.3775 -4.29645 -3.94657
head 10.5763 -2.61064 -1.50235
rclavicle 7.45443e-017 -3.97569e-015
rhumerus 140.389 21.3636 -219.049
rradius 10.9819
rwrist 77.5708
rhand -17.7522 17.4669
rfingers 7.12502
rthumb 8.50948 -12.3416
lclavicle 7.45443e-017 -3.97569e-015
lhumerus 32.797 18.2562 64.4017
lradius 20.3034
lwrist -15.4178
lhand 12.4447 34.2112
lfingers 7.12502
lthumb 37.4412 60.1603
rfemur 148.845 -214.539 -195.022
rtibia 38.2119
rfoot -83.0047 20.072
rtoes 61.1171
lfemur -51.856 -1.20674 -32.3447
ltibia 52.5966
lfoot -29.6062 15.9787
ltoes -0.751251
260
root 3.4008 15.9076 -4.88872 24.9403 15.1569 0.168455
lowerback -10.4895 1.0534 -1.14222
upperback -9.15385 1.63576 2.9788
thorax -3.82801 1.02407 3.86183
lowerneck -9.4541 -3.99922 -2.18492
upperneck 28.0504 -3.99449 -4.06066
head 10.49 -2.47264 -1.52883
rclavicle 2.52953e-014 4.53229e-014
rhumerus 141.702 22.3813 -217.313
rradius 11.2341
rwrist 80.0348
rhand -16.9287 16.921
rfingers 7.12502
rthumb 9.30418 -12.8537
lclavicle 2.52953e-014 4.53229e-014
lhumerus 31.013 18.0378 61.5509
lradius 20.1826
lwrist -19.025
lhand 12.3078 33.524
lfingers 7.12502
lthumb 37.3118 59.5073
rfemur 149.705 -213.046 -193.889
rtibia 38.0074
rfoot -82.306 18.0116
rtoes 60.3932
lfemur -52.6542 -0.624046 -32.7463
ltibia 52.8008
lfoot -29.7299 16.1943
ltoes -1.24761
